<svg width="146" height="19" viewBox="0 0 146 19" fill="none" xmlns="http://www.w3.org/2000/svg">
<path d="M16.6 0.449999L10.525 12.2V18H6.25V12.2L0.175 0.449999H5.025L8.425 7.8L11.8 0.449999H16.6ZM26.6225 18.175C24.9725 18.175 23.4558 17.7917 22.0725 17.025C20.7058 16.2583 19.6141 15.1917 18.7975 13.825C17.9975 12.4417 17.5975 10.8917 17.5975 9.175C17.5975 7.45833 17.9975 5.91667 18.7975 4.55C19.6141 3.18333 20.7058 2.11667 22.0725 1.35C23.4558 0.583333 24.9725 0.2 26.6225 0.2C28.2725 0.2 29.7808 0.583333 31.1475 1.35C32.5308 2.11667 33.6141 3.18333 34.3975 4.55C35.1975 5.91667 35.5975 7.45833 35.5975 9.175C35.5975 10.8917 35.1975 12.4417 34.3975 13.825C33.5975 15.1917 32.5141 16.2583 31.1475 17.025C29.7808 17.7917 28.2725 18.175 26.6225 18.175ZM26.6225 14.275C28.0225 14.275 29.1391 13.8083 29.9725 12.875C30.8225 11.9417 31.2475 10.7083 31.2475 9.175C31.2475 7.625 30.8225 6.39167 29.9725 5.475C29.1391 4.54167 28.0225 4.075 26.6225 4.075C25.2058 4.075 24.0725 4.53333 23.2225 5.45C22.3891 6.36667 21.9725 7.60833 21.9725 9.175C21.9725 10.725 22.3891 11.9667 23.2225 12.9C24.0725 13.8167 25.2058 14.275 26.6225 14.275ZM42.1758 0.449999V10.95C42.1758 12 42.4341 12.8083 42.9508 13.375C43.4674 13.9417 44.2258 14.225 45.2258 14.225C46.2258 14.225 46.9924 13.9417 47.5258 13.375C48.0591 12.8083 48.3258 12 48.3258 10.95V0.449999H52.6008V10.925C52.6008 12.4917 52.2674 13.8167 51.6008 14.9C50.9341 15.9833 50.0341 16.8 48.9008 17.35C47.7841 17.9 46.5341 18.175 45.1508 18.175C43.7674 18.175 42.5258 17.9083 41.4258 17.375C40.3424 16.825 39.4841 16.0083 38.8508 14.925C38.2174 13.825 37.9008 12.4917 37.9008 10.925V0.449999H42.1758ZM64.5527 18L60.9027 11.375H59.8777V18H55.6027V0.449999H62.7777C64.1611 0.449999 65.3361 0.691666 66.3027 1.175C67.2861 1.65833 68.0194 2.325 68.5027 3.175C68.9861 4.00833 69.2277 4.94167 69.2277 5.975C69.2277 7.14167 68.8944 8.18333 68.2277 9.1C67.5777 10.0167 66.6111 10.6667 65.3277 11.05L69.3777 18H64.5527ZM59.8777 8.35H62.5277C63.3111 8.35 63.8944 8.15833 64.2777 7.775C64.6777 7.39167 64.8777 6.85 64.8777 6.15C64.8777 5.48333 64.6777 4.95833 64.2777 4.575C63.8944 4.19167 63.3111 4 62.5277 4H59.8777V8.35ZM81.4842 14.7H87.0842V18H77.2092V0.449999H81.4842V14.7ZM97.4232 18.175C95.7732 18.175 94.2566 17.7917 92.8732 17.025C91.5066 16.2583 90.4149 15.1917 89.5982 13.825C88.7982 12.4417 88.3982 10.8917 88.3982 9.175C88.3982 7.45833 88.7982 5.91667 89.5982 4.55C90.4149 3.18333 91.5066 2.11667 92.8732 1.35C94.2566 0.583333 95.7732 0.2 97.4232 0.2C99.0732 0.2 100.582 0.583333 101.948 1.35C103.332 2.11667 104.415 3.18333 105.198 4.55C105.998 5.91667 106.398 7.45833 106.398 9.175C106.398 10.8917 105.998 12.4417 105.198 13.825C104.398 15.1917 103.315 16.2583 101.948 17.025C100.582 17.7917 99.0732 18.175 97.4232 18.175ZM97.4232 14.275C98.8232 14.275 99.9399 13.8083 100.773 12.875C101.623 11.9417 102.048 10.7083 102.048 9.175C102.048 7.625 101.623 6.39167 100.773 5.475C99.9399 4.54167 98.8232 4.075 97.4232 4.075C96.0066 4.075 94.8732 4.53333 94.0232 5.45C93.1899 6.36667 92.7732 7.60833 92.7732 9.175C92.7732 10.725 93.1899 11.9667 94.0232 12.9C94.8732 13.8167 96.0066 14.275 97.4232 14.275ZM120.427 6C120.11 5.41667 119.652 4.975 119.052 4.675C118.468 4.35833 117.777 4.2 116.977 4.2C115.593 4.2 114.485 4.65833 113.652 5.575C112.818 6.475 112.402 7.68333 112.402 9.2C112.402 10.8167 112.835 12.0833 113.702 13C114.585 13.9 115.793 14.35 117.327 14.35C118.377 14.35 119.26 14.0833 119.977 13.55C120.71 13.0167 121.243 12.25 121.577 11.25H116.152V8.1H125.452V12.075C125.135 13.1417 124.593 14.1333 123.827 15.05C123.077 15.9667 122.118 16.7083 120.952 17.275C119.785 17.8417 118.468 18.125 117.002 18.125C115.268 18.125 113.718 17.75 112.352 17C111.002 16.2333 109.943 15.175 109.177 13.825C108.427 12.475 108.052 10.9333 108.052 9.2C108.052 7.46667 108.427 5.925 109.177 4.575C109.943 3.20833 111.002 2.15 112.352 1.4C113.702 0.633332 115.243 0.249999 116.977 0.249999C119.077 0.249999 120.843 0.758332 122.277 1.775C123.727 2.79167 124.685 4.2 125.152 6H120.427ZM136.12 18.175C134.47 18.175 132.953 17.7917 131.57 17.025C130.203 16.2583 129.111 15.1917 128.295 13.825C127.495 12.4417 127.095 10.8917 127.095 9.175C127.095 7.45833 127.495 5.91667 128.295 4.55C129.111 3.18333 130.203 2.11667 131.57 1.35C132.953 0.583333 134.47 0.2 136.12 0.2C137.77 0.2 139.278 0.583333 140.645 1.35C142.028 2.11667 143.111 3.18333 143.895 4.55C144.695 5.91667 145.095 7.45833 145.095 9.175C145.095 10.8917 144.695 12.4417 143.895 13.825C143.095 15.1917 142.011 16.2583 140.645 17.025C139.278 17.7917 137.77 18.175 136.12 18.175ZM136.12 14.275C137.52 14.275 138.636 13.8083 139.47 12.875C140.32 11.9417 140.745 10.7083 140.745 9.175C140.745 7.625 140.32 6.39167 139.47 5.475C138.636 4.54167 137.52 4.075 136.12 4.075C134.703 4.075 133.57 4.53333 132.72 5.45C131.886 6.36667 131.47 7.60833 131.47 9.175C131.47 10.725 131.886 11.9667 132.72 12.9C133.57 13.8167 134.703 14.275 136.12 14.275Z" fill="#22262A"/>
</svg>
